<svg xmlns="http://www.w3.org/2000/svg" viewBox="0 0 512 512"><rect x="109" y="109" width="294" height="294" rx="28" fill="#f2c400" transform="rotate(45 256 256)"/><path fill="#111111" d="M231.60 201.63L231.60 322.38L212.73 322.38L212.73 235.50Q202.15 247.40 188.28 252.98L188.28 232.06Q196.16 228.86 204.61 220.62Q213.06 212.37 216.34 201.63L231.60 201.63M286.15 300.96L323.72 300.96L323.72 322.38L257.44 322.38Q258.50 310.23 263.96 299.28Q269.41 288.33 285.16 270.53Q297.63 256.34 300.50 251.34Q304.77 244.04 304.77 236.65Q304.77 228.78 301.24 224.76Q297.71 220.74 291.97 220.74Q279.42 220.74 278.44 239.52L259.65 237.23Q261.37 218.85 269.86 210.24Q278.35 201.63 292.46 201.63Q307.97 201.63 315.84 211.71Q323.72 221.80 323.72 234.85Q323.72 242.23 321.71 249.16Q319.70 256.09 315.51 263.11Q311.33 270.12 301.57 281.03Q292.46 291.29 290.04 294.57Q287.62 297.85 286.15 300.96"/></svg>
