<svg xmlns="http://www.w3.org/2000/svg" viewBox="0 0 512 512"><rect x="8" y="8" width="496" height="496" fill="#000000"/><rect x="40.24" y="109.68" width="431.52" height="362.08" fill="#ffffff"/><path fill="#ffffff" d="M91.49 23.40L91.49 31.24Q91.66 31.26 91.87 31.28Q92.08 31.30 92.47 31.30L92.47 31.30Q94.67 31.30 95.65 30.28Q96.62 29.25 96.62 26.97L96.62 26.97Q96.62 25.07 95.59 24.24Q94.55 23.40 92.13 23.40L92.13 23.40L91.49 23.40ZM91.49 49.09L84.13 49.09L84.13 17.75L91.33 17.75Q95.32 17.75 97.22 18.09Q99.13 18.44 100.43 19.25L100.43 19.25Q102.16 20.31 103.07 22.40Q103.97 24.48 103.97 27.37L103.97 27.37Q103.97 32.14 101.46 34.61Q98.94 37.08 94.08 37.08L94.08 37.08L91.49 37.08L91.49 49.09ZM114.52 23.75L112.40 37.43L116.61 37.43L114.52 23.75ZM110.73 49.09L103.34 49.09L110.18 17.75L118.89 17.75L125.65 49.09L118.32 49.09L117.41 43.09L111.65 43.09L110.73 49.09ZM135.77 23.16L135.77 30.79Q135.95 30.79 136.25 30.81Q136.54 30.83 136.68 30.83L136.68 30.83Q138.96 30.83 139.91 29.92Q140.86 29.00 140.86 26.82L140.86 26.82Q140.86 24.81 139.91 23.96Q138.96 23.12 136.68 23.12L136.68 23.12Q136.54 23.12 136.25 23.14Q135.95 23.16 135.77 23.16L135.77 23.16ZM135.77 49.09L128.52 49.09L128.52 17.75L136.77 17.75Q140.82 17.75 142.65 18.12Q144.48 18.50 145.62 19.42L145.62 19.42Q146.96 20.51 147.63 22.12Q148.29 23.73 148.29 25.95L148.29 25.95Q148.29 28.66 147.34 30.49Q146.39 32.32 144.40 33.50L144.40 33.50Q147.80 35.01 147.98 40.65L147.98 40.65L147.98 40.75Q148.00 41.34 148.02 42.46L148.02 42.46Q148.10 47.75 149.77 49.09L149.77 49.09L141.20 49.09Q140.92 48.12 140.79 47.05Q140.65 45.98 140.65 44.76L140.65 44.76Q140.65 44.01 140.69 42.94Q140.73 41.87 140.73 41.54L140.73 41.54Q140.73 38.67 139.98 37.61Q139.23 36.55 137.27 36.55L137.27 36.55L135.77 36.55L135.77 49.09ZM170.01 49.09L152.95 49.09L152.95 17.75L170.01 17.75L170.01 23.83L160.24 23.83L160.24 29.59L169.25 29.59L169.25 35.88L160.24 35.88L160.24 42.72L170.01 42.72L170.01 49.09ZM181.14 49.09L174.55 49.09L174.55 17.75L182.18 17.75L188.27 37.08Q187.90 32.20 187.73 28.66Q187.55 25.11 187.55 22.67L187.55 22.67L187.55 17.75L194.09 17.75L194.09 49.09L186.43 49.09L180.31 29.17Q180.71 33.05 180.93 36.71Q181.14 40.36 181.14 43.80L181.14 43.80L181.14 49.09ZM210.39 49.09L203.04 49.09L203.04 23.83L197.18 23.83L197.18 17.75L216.56 17.75L216.56 23.83L210.39 23.83L210.39 49.09ZM218.60 38.47L218.60 38.47L225.31 38.47L225.31 39.38Q225.31 41.97 225.92 43.03Q226.53 44.09 227.98 44.09L227.98 44.09Q229.14 44.09 229.81 43.28Q230.48 42.48 230.48 41.09L230.48 41.09Q230.48 38.81 227.21 36.72L227.21 36.72Q226.68 36.35 226.39 36.17L226.39 36.17L226.05 35.94Q221.63 32.97 220.55 31.47L220.55 31.47Q219.78 30.33 219.37 28.90Q218.96 27.48 218.96 25.79L218.96 25.79Q218.96 21.67 221.34 19.33Q223.73 16.99 227.90 16.99L227.90 16.99Q232.44 16.99 234.83 19.29Q237.22 21.59 237.22 25.95L237.22 25.95Q237.22 26.13 237.20 26.46Q237.18 26.78 237.18 26.97L237.18 26.97L230.61 26.97L230.61 26.58Q230.61 24.52 229.96 23.47Q229.32 22.41 228.10 22.41L228.10 22.41Q227.06 22.41 226.43 23.15Q225.80 23.89 225.80 25.11L225.80 25.11Q225.80 27.11 229.38 29.35L229.38 29.35Q230.04 29.78 230.38 30.00L230.38 30.00Q230.67 30.16 231.18 30.51L231.18 30.51Q235.02 32.95 236.10 34.62L236.10 34.62Q236.77 35.70 237.13 37.07Q237.49 38.45 237.49 40.06L237.49 40.06Q237.49 44.76 235.04 47.30Q232.60 49.85 228.06 49.85L228.06 49.85Q223.30 49.85 220.91 47.41Q218.51 44.98 218.51 40.18L218.51 40.18Q218.51 39.87 218.52 39.54Q218.54 39.20 218.60 38.47ZM251.65 38.47L251.65 38.47L258.37 38.47L258.37 39.38Q258.37 41.97 258.98 43.03Q259.59 44.09 261.04 44.09L261.04 44.09Q262.20 44.09 262.87 43.28Q263.54 42.48 263.54 41.09L263.54 41.09Q263.54 38.81 260.26 36.72L260.26 36.72Q259.74 36.35 259.45 36.17L259.45 36.17L259.10 35.94Q254.69 32.97 253.61 31.47L253.61 31.47Q252.83 30.33 252.43 28.90Q252.02 27.48 252.02 25.79L252.02 25.79Q252.02 21.67 254.40 19.33Q256.78 16.99 260.96 16.99L260.96 16.99Q265.50 16.99 267.89 19.29Q270.28 21.59 270.28 25.95L270.28 25.95Q270.28 26.13 270.26 26.46Q270.24 26.78 270.24 26.97L270.24 26.97L263.66 26.97L263.66 26.58Q263.66 24.52 263.02 23.47Q262.38 22.41 261.16 22.41L261.16 22.41Q260.12 22.41 259.49 23.15Q258.86 23.89 258.86 25.11L258.86 25.11Q258.86 27.11 262.44 29.35L262.44 29.35Q263.09 29.78 263.44 30.00L263.44 30.00Q263.73 30.16 264.23 30.51L264.23 30.51Q268.08 32.95 269.16 34.62L269.16 34.62Q269.83 35.70 270.19 37.07Q270.54 38.45 270.54 40.06L270.54 40.06Q270.54 44.76 268.10 47.30Q265.66 49.85 261.12 49.85L261.12 49.85Q256.36 49.85 253.96 47.41Q251.57 44.98 251.57 40.18L251.57 40.18Q251.57 39.87 251.58 39.54Q251.59 39.20 251.65 38.47ZM285.67 49.09L278.32 49.09L278.32 23.83L272.46 23.83L272.46 17.75L291.84 17.75L291.84 23.83L285.67 23.83L285.67 49.09ZM302.08 23.16L302.08 30.79Q302.26 30.79 302.55 30.81Q302.85 30.83 302.99 30.83L302.99 30.83Q305.27 30.83 306.22 29.92Q307.16 29.00 307.16 26.82L307.16 26.82Q307.16 24.81 306.22 23.96Q305.27 23.12 302.99 23.12L302.99 23.12Q302.85 23.12 302.55 23.14Q302.26 23.16 302.08 23.16L302.08 23.16ZM302.08 49.09L294.83 49.09L294.83 17.75L303.07 17.75Q307.12 17.75 308.96 18.12Q310.79 18.50 311.93 19.42L311.93 19.42Q313.27 20.51 313.93 22.12Q314.59 23.73 314.59 25.95L314.59 25.95Q314.59 28.66 313.65 30.49Q312.70 32.32 310.71 33.50L310.71 33.50Q314.11 35.01 314.29 40.65L314.29 40.65L314.29 40.75Q314.31 41.34 314.33 42.46L314.33 42.46Q314.41 47.75 316.08 49.09L316.08 49.09L307.51 49.09Q307.23 48.12 307.09 47.05Q306.96 45.98 306.96 44.76L306.96 44.76Q306.96 44.01 307.00 42.94Q307.04 41.87 307.04 41.54L307.04 41.54Q307.04 38.67 306.29 37.61Q305.54 36.55 303.58 36.55L303.58 36.55L302.08 36.55L302.08 49.09ZM332.14 36.25L332.14 36.25L332.14 30.59Q332.14 25.38 331.48 24.15Q330.82 22.92 329.09 22.92L329.09 22.92Q327.40 22.92 326.75 24.18Q326.10 25.44 326.10 30.59L326.10 30.59L326.10 36.25Q326.10 41.34 326.75 42.63Q327.40 43.92 329.13 43.92L329.13 43.92Q330.84 43.92 331.49 42.66Q332.14 41.40 332.14 36.25ZM318.62 33.42L318.62 33.42Q318.62 27.76 319.03 25.16Q319.44 22.55 320.38 21.08L320.38 21.08Q321.72 19.01 323.90 18.00Q326.08 16.99 329.13 16.99L329.13 16.99Q332.20 16.99 334.35 18.00Q336.50 19.01 337.84 21.08L337.84 21.08Q338.82 22.57 339.22 25.18Q339.63 27.78 339.63 33.42L339.63 33.42Q339.63 39.04 339.22 41.65Q338.82 44.27 337.84 45.76L337.84 45.76Q336.52 47.81 334.35 48.83Q332.18 49.85 329.13 49.85L329.13 49.85Q326.08 49.85 323.90 48.83Q321.72 47.81 320.38 45.76L320.38 45.76Q319.44 44.29 319.03 41.68Q318.62 39.08 318.62 33.42ZM350.71 49.09L344.11 49.09L344.11 17.75L351.74 17.75L357.83 37.08Q357.46 32.20 357.29 28.66Q357.12 25.11 357.12 22.67L357.12 22.67L357.12 17.75L363.65 17.75L363.65 49.09L356.00 49.09L349.87 29.17Q350.28 33.05 350.49 36.71Q350.71 40.36 350.71 43.80L350.71 43.80L350.71 49.09ZM378.08 31.91L388.04 31.91L388.04 49.09L382.99 49.09L382.66 47.14Q381.57 48.40 380.23 49.02Q378.90 49.64 377.21 49.64L377.21 49.64Q375.30 49.64 373.68 48.93Q372.06 48.22 370.86 46.88L370.86 46.88Q369.37 45.23 368.76 42.44Q368.15 39.65 368.15 32.99L368.15 32.99Q368.15 28.25 368.58 25.40Q369.01 22.55 369.90 21.13L369.90 21.13Q371.20 19.07 373.35 18.03Q375.50 16.99 378.45 16.99L378.45 16.99Q383.07 16.99 385.41 19.51Q387.75 22.02 387.75 27.01L387.75 27.01Q387.75 27.19 387.73 27.57Q387.71 27.94 387.71 28.17L387.71 28.17L380.75 28.17L380.75 27.78Q380.75 25.07 380.17 23.91Q379.59 22.75 378.29 22.75L378.29 22.75Q376.74 22.75 376.16 24.18Q375.58 25.60 375.58 30.83L375.58 30.83L375.58 33.93L375.58 36.09Q375.58 41.32 376.13 42.68Q376.68 44.05 378.17 44.05L378.17 44.05Q379.65 44.05 380.32 42.84Q381.00 41.64 381.00 38.96L381.00 38.96Q381.00 38.35 380.98 38.02Q380.97 37.69 380.95 37.39L380.95 37.39L378.08 37.39L378.08 31.91ZM408.94 42.76L408.94 49.09L392.80 49.09L392.80 17.75L400.13 17.75L400.13 42.76L408.94 42.76ZM420.67 49.09L413.16 49.09L413.16 35.80L405.95 17.75L413.83 17.75L416.86 27.66L419.92 17.75L427.87 17.75L420.67 35.80L420.67 49.09Z"/><path fill="#ffffff" d="M171.35 89.19L171.35 87.80L178.56 87.80Q178.58 88.09 178.59 88.41Q178.60 88.74 178.60 89.39L178.60 89.39Q178.60 95.13 176.08 97.91Q173.57 100.69 168.38 100.69L168.38 100.69Q165.32 100.69 163.15 99.67Q160.97 98.65 159.63 96.60L159.63 96.60Q158.69 95.13 158.28 92.52Q157.87 89.92 157.87 84.26L157.87 84.26Q157.87 78.60 158.28 76.00Q158.69 73.39 159.63 71.92L159.63 71.92Q160.95 69.89 163.11 68.86Q165.26 67.83 168.26 67.83L168.26 67.83Q173.41 67.83 175.98 70.69Q178.56 73.55 178.56 79.25L178.56 79.25L178.56 79.56L171.43 79.54Q171.39 76.34 170.70 75.05Q170.01 73.76 168.38 73.76L168.38 73.76Q166.61 73.76 165.96 75.33Q165.30 76.91 165.30 83.67L165.30 83.67L165.30 84.26Q165.30 91.53 165.96 93.17Q166.61 94.80 168.38 94.80L168.38 94.80Q170.03 94.80 170.69 93.61Q171.35 92.42 171.35 89.19L171.35 89.19ZM192.28 74.59L190.16 88.27L194.37 88.27L192.28 74.59ZM188.49 99.93L181.10 99.93L187.94 68.59L196.65 68.59L203.41 99.93L196.08 99.93L195.17 93.93L189.41 93.93L188.49 99.93ZM205.55 85.46L205.55 68.59L212.96 68.59L212.96 88.23Q212.96 92.69 213.52 93.75Q214.08 94.80 215.50 94.80L215.50 94.80Q216.95 94.80 217.50 93.71Q218.05 92.61 218.05 88.23L218.05 88.23L218.05 68.59L225.31 68.59L225.31 88.60Q225.31 92.00 225.02 93.67Q224.72 95.35 224.05 96.60L224.05 96.60Q222.93 98.71 220.81 99.70Q218.70 100.69 215.30 100.69L215.30 100.69Q212.16 100.69 210.19 99.76Q208.21 98.83 207.05 96.80L207.05 96.80Q206.22 95.35 205.88 93.09Q205.55 90.83 205.55 85.46L205.55 85.46ZM241.58 99.93L234.23 99.93L234.23 74.67L228.37 74.67L228.37 68.59L247.75 68.59L247.75 74.67L241.58 74.67L241.58 99.93ZM258.07 99.93L250.74 99.93L250.74 68.59L258.07 68.59L258.07 99.93ZM276.04 87.09L276.04 87.09L276.04 81.43Q276.04 76.22 275.38 74.99Q274.72 73.76 272.99 73.76L272.99 73.76Q271.30 73.76 270.65 75.02Q269.99 76.28 269.99 81.43L269.99 81.43L269.99 87.09Q269.99 92.18 270.65 93.47Q271.30 94.76 273.03 94.76L273.03 94.76Q274.74 94.76 275.39 93.50Q276.04 92.24 276.04 87.09ZM262.52 84.26L262.52 84.26Q262.52 78.60 262.93 76.00Q263.34 73.39 264.27 71.92L264.27 71.92Q265.62 69.85 267.80 68.84Q269.97 67.83 273.03 67.83L273.03 67.83Q276.10 67.83 278.25 68.84Q280.40 69.85 281.74 71.92L281.74 71.92Q282.72 73.41 283.12 76.02Q283.53 78.62 283.53 84.26L283.53 84.26Q283.53 89.88 283.12 92.49Q282.72 95.11 281.74 96.60L281.74 96.60Q280.42 98.65 278.25 99.67Q276.08 100.69 273.03 100.69L273.03 100.69Q269.97 100.69 267.80 99.67Q265.62 98.65 264.27 96.60L264.27 96.60Q263.34 95.13 262.93 92.52Q262.52 89.92 262.52 84.26ZM294.60 99.93L288.01 99.93L288.01 68.59L295.64 68.59L301.73 87.92Q301.36 83.04 301.19 79.50Q301.02 75.95 301.02 73.51L301.02 73.51L301.02 68.59L307.55 68.59L307.55 99.93L299.90 99.93L293.77 80.01Q294.18 83.89 294.39 87.55Q294.60 91.20 294.60 94.64L294.60 94.64L294.60 99.93ZM329.74 99.93L312.68 99.93L312.68 68.59L329.74 68.59L329.74 74.67L319.97 74.67L319.97 80.43L328.99 80.43L328.99 86.72L319.97 86.72L319.97 93.56L329.74 93.56L329.74 99.93ZM341.65 74.43L341.65 74.43L341.65 94.21Q341.87 94.25 342.07 94.25Q342.28 94.25 342.71 94.25L342.71 94.25Q343.89 94.25 344.67 93.93Q345.45 93.60 345.94 92.89L345.94 92.89Q346.35 92.32 346.50 90.69Q346.65 89.06 346.65 84.30L346.65 84.30L346.65 82.88Q346.65 78.97 346.51 77.59Q346.37 76.22 345.98 75.71L345.98 75.71Q345.56 75.04 344.73 74.71Q343.91 74.39 342.62 74.39L342.62 74.39Q342.24 74.39 342.02 74.40Q341.81 74.41 341.65 74.43ZM342.36 99.93L334.28 99.93L334.28 68.59L342.36 68.59Q346.80 68.59 348.93 69.35Q351.07 70.11 352.33 71.97L352.33 71.97Q353.31 73.41 353.72 75.70Q354.13 77.99 354.13 84.26L354.13 84.26Q354.13 90.53 353.72 92.81Q353.31 95.09 352.33 96.55L352.33 96.55Q351.07 98.41 348.93 99.17Q346.80 99.93 342.36 99.93L342.36 99.93Z"/><path fill="#7F3F98" fill-rule="evenodd" d="M137.68 274.90L137.68 274.90Q138.56 262.12 130.27 259.10L130.27 259.10Q129.29 258.71 129.10 258.71L129.10 258.71Q116.61 258.12 114.17 258.22L114.17 258.22Q113.20 258.22 111.88 259.39Q110.56 260.56 110.56 261.34L110.56 261.34Q110.37 266.51 110.37 288.94L110.37 288.94Q112.32 288.94 116.17 289.04Q120.02 289.14 122.90 289.09Q125.78 289.04 128.41 288.75L128.41 288.75Q133.19 288.16 135.14 285.09Q137.09 282.02 137.68 274.90ZM152.99 250.80L152.99 250.80Q161.58 252.46 163.53 261.24L163.53 261.24Q166.55 274.51 163.33 286.31L163.33 286.31Q160.80 295.58 152.80 296.94L152.80 296.94Q142.46 298.60 130.46 299.38L130.46 299.38Q127.54 299.57 124.32 299.57Q121.10 299.57 116.90 299.53Q112.71 299.48 110.66 299.48L110.66 299.48Q110.66 301.04 110.56 304.94Q110.47 308.84 110.51 311.57Q110.56 314.30 110.86 316.84L110.86 316.84Q111.05 318.30 112.47 319.96Q113.88 321.62 115.54 322.50L115.54 322.50Q116.51 323.08 117.83 323.42Q119.15 323.76 120.85 324.01Q122.56 324.25 123.44 324.54L123.44 324.54Q127.54 325.52 128.61 326.40L128.61 326.40Q129.29 326.98 129.78 328.20Q130.27 329.42 130.07 330.40L130.07 330.40Q130.07 330.69 129.88 330.98Q129.68 331.28 129.29 331.57Q128.90 331.86 128.61 332.06Q128.32 332.25 127.78 332.54Q127.24 332.84 127.05 332.93L127.05 332.93Q126.76 333.13 125.10 333.13L125.10 333.13Q96.91 333.03 76.03 333.03L76.03 333.03Q73.50 332.93 72.91 332.74L72.91 332.74Q69.69 331.08 69.69 330.01L69.69 330.01Q69.60 329.03 70.28 327.81Q70.96 326.59 71.84 325.91L71.84 325.91Q72.23 325.62 72.91 325.33Q73.60 325.03 74.03 324.93Q74.47 324.84 75.40 324.64Q76.33 324.45 76.62 324.45L76.62 324.45Q81.30 323.37 83.01 321.47Q84.72 319.57 85.01 314.79L85.01 314.79Q85.20 312.64 85.20 304.55L85.20 304.55Q85.20 274.90 85.20 266.90L85.20 266.90Q85.11 262.31 83.84 260.75Q82.57 259.19 77.99 257.92L77.99 257.92Q73.30 256.56 71.06 255.19L71.06 255.19Q70.28 254.61 69.74 253.34Q69.21 252.07 69.21 250.90L69.21 250.90Q69.21 250.12 72.52 248.85L72.52 248.85Q73.30 248.56 75.64 248.56L75.64 248.56Q127.83 248.66 140.12 248.76L140.12 248.76Q141.58 248.76 143.39 249.00Q145.19 249.24 146.46 249.49Q147.73 249.73 149.87 250.17Q152.02 250.61 152.99 250.80ZM245.95 291.87L245.95 291.87Q263.31 291.87 266.53 291.97L266.53 291.97Q267.12 291.97 267.75 292.36Q268.38 292.75 269.16 293.48Q269.94 294.21 270.33 294.50L270.33 294.50Q270.04 294.89 269.51 295.87Q268.97 296.84 268.48 297.43Q267.99 298.01 267.41 298.11L267.41 298.11Q264.09 298.89 261.90 300.50Q259.70 302.11 258.78 304.21Q257.85 306.30 257.56 308.99Q257.26 311.67 257.65 314.69L257.65 314.69Q257.75 314.89 257.75 319.47L257.75 319.47Q257.75 324.45 256.34 326.54Q254.92 328.64 250.24 330.10L250.24 330.10Q239.22 333.42 233.66 333.52L233.66 333.52Q212.10 333.91 194.64 332.54L194.64 332.54Q187.62 331.96 182.84 327.71Q178.06 323.47 175.82 316.55L175.82 316.55Q167.62 291.09 176.40 266.80L176.40 266.80Q179.72 257.73 186.74 252.90Q193.77 248.07 203.81 247.29L203.81 247.29Q228.78 245.54 246.63 249.93L246.63 249.93Q255.51 252.17 257.90 257.83Q260.29 263.48 257.36 272.85L257.36 272.85Q255.41 280.07 244.68 278.99L244.68 278.99Q240.78 278.60 239.07 276.90Q237.37 275.19 236.49 271.00L236.49 271.00Q235.51 265.92 234.39 263.14Q233.27 260.36 231.07 258.66Q228.88 256.95 225.90 256.56Q222.93 256.17 217.76 256.46L217.76 256.46Q213.96 256.56 210.64 257.24L210.64 257.24Q200.69 259.19 198.64 268.36L198.64 268.36Q193.57 290.80 199.23 313.43L199.23 313.43Q200.11 317.23 202.64 319.67Q205.18 322.11 208.69 322.50L208.69 322.50Q216.30 323.37 228.68 322.89L228.68 322.89Q231.61 322.79 233.17 320.89Q234.73 318.98 234.93 315.96L234.93 315.96Q235.02 314.60 235.12 311.96L235.12 311.96Q235.12 304.65 233.95 303.09Q232.78 301.53 225.86 299.48L225.86 299.48Q223.61 298.79 223.32 298.50L223.32 298.50Q221.27 296.45 221.27 295.09L221.27 295.09Q221.17 294.50 221.95 293.62Q222.73 292.75 223.51 292.45L223.51 292.45Q225.66 291.58 228.98 291.58L228.98 291.58Q231.03 291.48 245.95 291.48L245.95 291.48Q245.95 291.67 245.95 291.87ZM290.72 300.35L290.72 300.35Q282.23 300.35 281.65 300.35L281.65 300.35Q275.50 299.77 275.31 293.14L275.31 293.14Q275.21 289.63 276.82 287.14Q278.43 284.65 281.16 284.55L281.16 284.55Q290.43 283.87 300.08 284.46L300.08 284.46Q302.91 284.65 304.42 286.99Q305.94 289.33 305.74 292.70Q305.55 296.06 303.89 298.21Q302.23 300.35 299.40 300.55L299.40 300.55Q298.82 300.55 290.72 300.55L290.72 300.55Q290.72 300.55 290.72 300.50Q290.72 300.45 290.72 300.35ZM360.07 324.25L360.07 324.25Q360.36 324.45 361.10 325.18Q361.83 325.91 362.22 326.30Q362.61 326.69 362.95 327.28Q363.29 327.86 363.29 328.35L363.29 328.35Q363.29 329.32 361.97 330.54Q360.66 331.76 359.58 331.76L359.58 331.76Q344.95 332.06 318.03 331.86L318.03 331.86Q313.84 331.86 313.64 328.35L313.64 328.35Q313.45 324.25 317.84 324.06L317.84 324.06Q323.01 323.86 324.66 321.91Q326.32 319.96 326.32 314.11L326.32 314.11Q326.52 298.60 326.52 269.34L326.52 269.34Q326.52 265.44 325.30 264.36Q324.08 263.29 320.08 263.68L320.08 263.68Q316.08 263.97 313.93 263.19L313.93 263.19Q312.86 262.80 311.93 261.68Q311.01 260.56 311.01 259.58L311.01 259.58Q310.91 258.41 311.64 257.00Q312.37 255.58 313.35 255.19L313.35 255.19Q332.66 246.81 347.78 248.17L347.78 248.17Q348.37 248.27 348.81 248.37Q349.24 248.46 349.49 248.76Q349.73 249.05 349.88 249.20Q350.02 249.34 350.07 249.83Q350.12 250.32 350.12 250.46Q350.12 250.61 350.12 251.19Q350.12 251.78 350.12 251.88L350.12 251.88Q350.12 259.78 350.12 283.97L350.12 283.97Q350.12 311.47 350.12 315.18L350.12 315.18Q350.12 319.96 351.78 321.76Q353.44 323.57 358.22 323.96L358.22 323.96Q358.51 323.96 358.90 323.96Q359.29 323.96 359.63 324.01Q359.97 324.06 360.07 324.25ZM424.74 248.56L424.74 248.56Q434.49 250.80 438.74 256.61Q442.98 262.41 442.79 272.56L442.79 272.56Q442.69 277.92 440.10 281.58Q437.52 285.24 432.25 287.77L432.25 287.77Q438.01 291.67 440.25 297.09Q442.49 302.50 442.30 309.52L442.30 309.52Q442.10 319.28 436.40 325.96Q430.69 332.64 421.23 333.81L421.23 333.81Q401.04 336.54 381.82 333.13L381.82 333.13Q378.41 332.54 375.87 330.15Q373.34 327.76 372.21 324.64Q371.09 321.52 371.43 317.96Q371.78 314.40 373.82 311.67L373.82 311.67Q376.75 307.77 381.77 307.77Q386.80 307.77 389.63 311.57L389.63 311.57Q391.38 314.01 392.94 318.69L392.94 318.69Q394.50 323.37 398.89 323.57L398.89 323.57Q406.11 323.86 410.01 323.28L410.01 323.28Q418.40 321.91 420.06 313.43L420.06 313.43Q420.35 311.67 420.45 309.91L420.45 309.91Q421.03 301.23 418.11 298.11Q415.18 294.99 406.31 294.99L406.31 294.99Q402.31 294.99 402.01 294.99L402.01 294.99Q398.60 294.89 397.09 293.53Q395.58 292.16 395.67 289.24L395.67 289.24Q395.67 286.60 397.14 285.43Q398.60 284.26 402.11 284.07L402.11 284.07Q409.33 283.68 412.74 283.29L412.74 283.29Q418.79 282.50 419.67 276.36L419.67 276.36Q421.33 264.95 417.62 260.85Q413.91 256.75 402.99 257.44L402.99 257.44Q397.62 257.73 395.43 259.63Q393.23 261.53 391.77 266.90L391.77 266.90Q391.19 269.34 388.99 271.19Q386.80 273.04 384.16 273.82Q381.53 274.60 378.65 274.26Q375.77 273.92 373.92 272.26L373.92 272.26Q373.34 271.78 372.95 271.00L372.95 271.00Q371.19 267.48 371.39 263.29Q371.58 259.10 373.87 255.05Q376.17 251.00 379.38 249.44L379.38 249.44Q382.12 248.17 383.87 247.98L383.87 247.98Q391.87 247.00 397.77 246.61Q403.67 246.22 411.04 246.61Q418.40 247.00 424.74 248.56Z"/></svg>
